<svg width="24" height="24" viewBox="0 0 24 24" fill="none" xmlns="http://www.w3.org/2000/svg">
<path d="M19 20H4C3 20 2 19 2 18V6C2 5 3 4 4 4H10L12 6H19C20 6 21 7 21 8C21 8 5.5 8 5 8C4.5 8 4 8.5 4 9C4 9.5 4 18 4 18L5.5 11.9475C6 10 7 10 8 10C11 10 22 10 22 10C22 10 23 10 22.5 11.9475L21 18C20.77 18.87 19.92 20 19 20Z" fill="#FFCA28"/>
<path d="M11.6464 6.35355L11.7929 6.5H12H19C19.3374 6.5 19.7166 6.67373 20.0214 6.97855C20.1805 7.13761 20.3039 7.31694 20.3855 7.5H20.3723H20.3528H20.333H20.313H20.2926H20.2721H20.2512H20.2301H20.2088H20.1871H20.1653H20.1431H20.1207H20.0981H20.0752H20.052H20.0286H20.005H19.9811H19.957H19.9326H19.9079H19.8831H19.858H19.8326H19.807H19.7812H19.7551H19.7289H19.7023H19.6756H19.6486H19.6214H19.5939H19.5663H18.5703H18.0003H17.3898H16.7442H16.0693H14.6537H14.6084H14.5631H14.5177H14.4723H14.4268H14.3813H14.3357H14.2901H14.2445H14.1988H14.1531H14.1074H14.0616H14.0158H13.97H13.9241H13.8782H13.8323H13.7864H13.7404H13.6944H13.6484H13.6024H13.5563H13.5103H13.4642H13.4181H13.372H13.3259H13.2798H13.2336H13.1875H5C4.58738 7.5 4.21662 7.70127 3.95895 7.95895C3.70127 8.21662 3.5 8.58738 3.5 9V9.00302V9.00622V9.00961V9.01318V9.01692V9.02085V9.02495V9.02923V9.03369V9.03833V9.04314V9.04813V9.05329V9.05862V9.06413V9.06981V9.07566V9.08168V9.08787V9.09423V9.10076V9.10746V9.11432V9.12135V9.12854V9.1359V9.14342V9.15111V9.15896V9.16697V9.17514V9.18347V9.19196V9.20061V9.20942V9.21839V9.22751V9.23678V9.24622V9.2558V9.26554V9.27544V9.28548V9.29568V9.30603V9.31653V9.32717V9.33797V9.34891V9.36V9.37124V9.38262V9.39414V9.40581V9.41763V9.42958V9.44168V9.45392V9.4663V9.47882V9.49147V9.50427V9.5172V9.53027V9.54348V9.55682V9.5703V9.5839V9.59765V9.61152V9.62553V9.63966V9.65393V9.66832V9.68285V9.6975V9.71228V9.72718V9.74221V9.75737V9.77265V9.78805V9.80358V9.81923V9.83499V9.85088V9.86689V9.88302V9.89927V9.91563V9.93211V9.94871V9.96542V9.98224V9.99918V10.0162V10.0334V10.0507V10.0681V10.0856V10.1032V10.1209V10.1387V10.1566V10.1747V10.1928V10.2111V10.2294V10.2479V10.2664V10.2851V10.3038V10.3227V10.3417V10.3607V10.3799V10.3991V10.4185V10.4379V10.4575V10.4771V10.4969V10.5167V10.5366V10.5566V10.5767V10.5969V10.6172V10.6376V10.658V10.6786V10.6992V10.7199V10.7407V10.7616V10.7826V10.8036V10.8247V10.846V10.8673V10.8886V10.9101V10.9316V10.9532V10.9749V10.9967V11.0185V11.0404V11.0624V11.0845V11.1066V11.1288V11.1511V11.1734V11.1959V11.2183V11.2409V11.2635V11.2862V11.309V11.3318V11.3547V11.3776V11.4006V11.4237V11.4468V11.47V11.4933V11.5166V11.5399V11.5634V11.5869V11.6104V11.634V11.6576V11.6814V11.7051V11.7289V11.7528V11.7767V11.8007V11.8247V11.8487V11.8729V11.897V11.9212V11.9455V11.9698V11.9941V12.0185V12.0429V12.0674V12.0919V12.1164V12.141V12.1657V12.1903V12.215V12.2398V12.2646V12.2894V12.3142V12.3391V12.364V12.389V12.414V12.439V12.464V12.4891V12.5142V12.5393V12.5645V12.5897V12.6149V12.6401V12.6654V12.6907V12.716V12.7413V12.7667V12.792V12.8174V12.8429V12.8683V12.8937V12.9192V12.9447V12.9702V12.9957V13.0212V13.0468V13.0723V13.0979V13.1235V13.149V13.1746V13.2002V13.2259V13.2515V13.2771V13.3027V13.3284V13.354V13.3797V13.4053V13.431V13.4566V13.4823V13.508V13.5336V13.5593V13.5849V13.6106V13.6362V13.6619V13.6875V13.7131V13.7388V13.7644V13.79V13.8156V13.8412V13.8668V13.8923V13.9179V13.9434V13.969V13.9945V14.02V14.0455V14.071V14.0964V14.1219V14.1473V14.1727V14.1981V14.2234V14.2488V14.2741V14.2994V14.3247V14.3499V14.3751V14.4003V14.4255V14.4506V14.4758V14.5009V14.5259V14.5509V14.5759V14.6009V14.6258V14.6507V14.6756V14.7004V14.7252V14.75V14.7747V14.7994V14.8241V14.8487V14.8733V14.8978V14.9223V14.9467V14.9711V14.9955V15.0198V15.0441V15.0683V15.0925V15.1166V15.1407V15.1647V15.1887V15.2127V15.2366V15.2604V15.2842V15.3079V15.3316V15.3552V15.3788V15.4023V15.4257V15.4491V15.4725V15.4958V15.519V15.5422V15.5653V15.5883V15.6113V15.6342V15.657V15.6798V15.7025V15.7252V15.7478V15.7703V15.7927V15.8151V15.8374V15.8597V15.8818V15.9039V15.926V15.9479V15.9698V15.9916V16.0133V16.035V16.0565V16.078V16.0994V16.1208V16.142V16.1632V16.1843V16.2053V16.2262V16.2471V16.2678V16.2885V16.3091V16.3296V16.35V16.3703V16.3905V16.4107V16.4307V16.4507V16.4706V16.4904V16.51V16.5296V16.5491V16.5685V16.5878V16.607V16.6261V16.6452V16.6641V16.6829V16.7016V16.7202V16.7387V16.7571V16.7754V16.7936V16.8117V16.8297V16.8475V16.8653V16.883V16.9005V16.9179V16.9353V16.9525V16.9696V16.9866V17.0035V17.0202V17.0369V17.0534V17.0699V17.0862V17.1023V17.1184V17.1344V17.1502V17.1659V17.1815V17.1969V17.2123V17.2275V17.2426V17.2576V17.2724V17.2871V17.3017V17.3162V17.3305V17.3447V17.3587V17.3727V17.3865V17.4002V17.4137V17.4271V17.4404V17.4535V17.4665V17.4794V17.4921V17.5047V17.5171V17.5294V17.5416V17.5536V17.5655V17.5773V17.5889V17.6003V17.6116V17.6228V17.6338V17.6447V17.6554V17.6659V17.6764V17.6866V17.6968V17.7067V17.7165V17.7262V17.7357V17.7451V17.7543V17.7633V17.7722V17.7809V17.7895V17.7979V17.8061V17.8142V17.8221V17.8299V17.8375V17.845V17.8522V17.8593V17.8663V17.8731V17.8797V17.8861V17.8924V17.8985V17.9044V17.9102V17.9158V17.9212V17.9264V17.9315V17.9364V17.9411V17.9457V17.95V17.9542V17.9582V17.9621V17.9657V17.9692V17.9725V17.9756V17.9785V17.9813V17.9838V17.9862V17.9884V17.9904V17.9922V17.9938V17.9953V17.9965V17.9976V17.9985V17.9991V17.9996V17.9999L4 18H3.5L4.48532 18.1203L5.9848 12.0699C6.21567 11.172 6.53233 10.8324 6.80562 10.6804C7.11065 10.5106 7.47454 10.5 8 10.5H8.01767H8.03552H8.05355H8.07177H8.09016H8.10873H8.12748H8.14641H8.16552H8.18479H8.20425H8.22388H8.24368H8.26365H8.28379H8.30411H8.32459H8.34524H8.36606H8.38705H8.4082H8.42952H8.45101H8.47265H8.49446H8.51643H8.53857H8.56086H8.58331H8.60592H8.62869H8.65161H8.67469H8.69793H8.72132H8.74486H8.76856H8.7924H8.8164H8.84055H8.86485H8.88929H8.91389H8.93862H8.96351H8.98854H9.01371H9.03903H9.06449H9.09009H9.11583H9.14172H9.16774H9.1939H9.22019H9.24662H9.27319H9.29989H9.32673H9.3537H9.3808H9.40803H9.4354H9.46289H9.49051H9.51826H9.54614H9.57414H9.60227H9.63052H9.6589H9.6874H9.71602H9.74476H9.77362H9.8026H9.8317H9.86092H9.89026H9.91971H9.94927H9.97895H10.0087H10.0387H10.0687H10.0988H10.129H10.1594H10.1898H10.2204H10.2511H10.2819H10.3127H10.3437H10.3748H10.406H10.4373H10.4687H10.5002H10.5318H10.5635H10.5953H10.6271H10.6591H10.6912H10.7234H10.7556H10.788H10.8204H10.853H10.8856H10.9183H10.9511H10.984H11.017H11.05H11.0832H11.1164H11.1497H11.1831H11.2166H11.2501H11.2838H11.3175H11.3513H11.3852H11.4191H11.4531H11.4872H11.5214H11.5556H11.5899H11.6243H11.6588H11.6933H11.7279H11.7626H11.7973H11.8321H11.8669H11.9018H11.9368H11.9719H12.007H12.0422H12.0774H12.1127H12.148H12.1834H12.2189H12.2544H12.29H12.3256H12.3613H12.397H12.4328H12.4686H12.5045H12.5404H12.5764H12.6124H12.6485H12.6846H12.7208H12.757H12.7933H12.8295H12.8659H12.9023H12.9387H12.9751H13.0116H13.0481H13.0847H13.1213H13.1579H13.1946H13.2313H13.268H13.3048H13.3416H13.3784H13.4153H13.4521H13.489H13.526H13.5629H13.5999H13.6369H13.6739H13.711H13.748H13.7851H13.8222H13.8594H13.8965H13.9337H13.9708H14.008H14.0452H14.0825H14.1197H14.1569H14.1942H14.2315H14.2687H14.306H14.3433H14.3806H14.4179H14.4552H14.4925H14.5298H14.5671H14.6044H14.6418H14.6791H14.7164H14.7537H14.791H14.8283H14.8656H14.9029H14.9402H14.9775H15.0147H15.052H15.0893H15.1265H15.1637H15.201H15.2382H15.2754H15.3125H15.3497H15.3868H15.424H15.4611H15.4982H15.5352H15.5723H15.6093H15.6463H15.6833H15.7203H15.7572H15.7941H15.831H15.8679H15.9047H15.9415H15.9783H16.015H16.0517H16.0884H16.125H16.1616H16.1982H16.2347H16.2712H16.3077H16.3441H16.3805H16.4168H16.4531H16.4894H16.5256H16.5617H16.5979H16.6339H16.67H16.706H16.7419H16.7778H16.8136H16.8494H16.8852H16.9208H16.9565H16.9921H17.0276H17.0631H17.0985H17.1338H17.1691H17.2044H17.2395H17.2747H17.3097H17.3447H17.3796H17.4145H17.4493H17.484H17.5187H17.5533H17.5879H17.6223H17.6567H17.691H17.7253H17.7595H17.7936H17.8276H17.8616H17.8954H17.9292H17.963H17.9966H18.0302H18.0637H18.0971H18.1304H18.1637H18.1968H18.2299H18.2629H18.2958H18.3286H18.3613H18.394H18.4265H18.459H18.4913H18.5236H18.5558H18.5879H18.6199H18.6518H18.6836H18.7153H18.7469H18.7784H18.8098H18.8411H18.8723H18.9035H18.9345H18.9654H18.9961H19.0268H19.0574H19.0879H19.1183H19.1485H19.1787H19.2087H19.2386H19.2684H19.2981H19.3277H19.3572H19.3865H19.4158H19.4449H19.4739H19.5028H19.5315H19.5602H19.5887H19.6171H19.6454H19.6735H19.7015H19.7294H19.7572H19.7848H19.8123H19.8397H19.867H19.8941H19.9211H19.948H19.9747H20.0013H20.0277H20.054H20.0802H20.1063H20.1322H20.1579H20.1836H20.209H20.2344H20.2596H20.2846H20.3095H20.3343H20.3589H20.3834H20.4077H20.4319H20.4559H20.4798H20.5035H20.5271H20.5505H20.5737H20.5968H20.6198H20.6426H20.6652H20.6877H20.71H20.7322H20.7542H20.776H20.7977H20.8192H20.8405H20.8617H20.8827H20.9036H20.9242H20.9447H20.9651H20.9853H21.0053H21.0251H21.0447H21.0642H21.0835H21.1027H21.1216H21.1404H21.159H21.1774H21.1957H21.2137H21.2316H21.2493H21.2668H21.2841H21.3013H21.3183H21.335H21.3516H21.368H21.3842H21.4002H21.4161H21.4317H21.4472H21.4624H21.4775H21.4923H21.507H21.5215H21.5358H21.5498H21.5637H21.5774H21.5909H21.6041H21.6172H21.6301H21.6427H21.6552H21.6675H21.6795H21.6914H21.703H21.7144H21.7256H21.7366H21.7474H21.758H21.7683H21.7785H21.7884H21.7981H21.8076H21.8169H21.826H21.8348H21.8435H21.8519H21.86H21.868H21.8757H21.8832H21.8905H21.8976H21.9044H21.911H21.9174H21.9235H21.9294H21.9351H21.9406H21.9458H21.9508H21.9555H21.96H21.9643H21.9684H21.9722H21.9757H21.9761C21.9776 10.5004 21.9795 10.501 21.9815 10.5018C21.9939 10.5061 22.0167 10.5164 22.0414 10.5485C22.0884 10.6096 22.2516 10.9045 22.0157 11.8232L22.0147 11.8273L20.5157 17.8757C20.4219 18.2276 20.1935 18.6552 19.889 18.9896C19.5754 19.3341 19.257 19.5 19 19.5H4C3.66262 19.5 3.28338 19.3263 2.97855 19.0214C2.67373 18.7166 2.5 18.3374 2.5 18V6C2.5 5.66262 2.67373 5.28338 2.97855 4.97855C3.28338 4.67373 3.66262 4.5 4 4.5H9.79289L11.6464 6.35355Z" stroke="black" stroke-opacity="0.15"/>
<path d="M9.00008 20.1301L10.6253 19.1223C10.9389 19.6919 11.2241 20.1739 11.9083 20.1739C12.5641 20.1739 12.9776 19.911 12.9776 18.8886V11.9352H14.9734V18.9175C14.9734 21.0356 13.7617 21.9997 11.9938 21.9997C10.3972 21.9997 9.47047 21.1525 9 20.1299M16.0574 19.911L17.6825 18.9469C18.1103 19.6627 18.6663 20.1886 19.6499 20.1886C20.4769 20.1886 21.0042 19.7649 21.0042 19.1806C21.0042 18.4794 20.4625 18.231 19.5501 17.8222L19.0512 17.6028C17.6113 16.9749 16.6562 16.186 16.6562 14.5207C16.6562 12.9869 17.7966 11.8182 19.5787 11.8182C20.8475 11.8182 21.7599 12.2711 22.4156 13.4543L20.8616 14.477C20.5194 13.8488 20.1489 13.6005 19.5786 13.6005C18.9941 13.6005 18.6234 13.9803 18.6234 14.477C18.6234 15.0904 18.9941 15.3389 19.8494 15.7187L20.3483 15.9378C22.0449 16.6829 23 17.4424 23 19.1514C23 20.9922 21.5887 22 19.6926 22C17.8394 22 16.6418 21.0943 16.0574 19.911" fill="white"/>
</svg>
