<svg viewBox="0 0 24 24" fill="none" xmlns="http://www.w3.org/2000/svg">
<path d="M10 4H4C2.89 4 2 4.89 2 6V18C2 19.097 2.903 20 4 20H20C21.097 20 22 19.097 22 18V8C22 7.46957 21.7893 6.96086 21.4142 6.58579C21.0391 6.21071 20.5304 6 20 6H12L10 4Z" fill="#3C99D4"/>
<path d="M11.6464 6.35355L11.7929 6.5H12H20C20.3978 6.5 20.7794 6.65804 21.0607 6.93934C21.342 7.22064 21.5 7.60218 21.5 8V18C21.5 18.8209 20.8209 19.5 20 19.5H4C3.17914 19.5 2.5 18.8209 2.5 18V6C2.5 5.16614 3.16614 4.5 4 4.5H9.79289L11.6464 6.35355Z" stroke="black" stroke-opacity="0.25"/>
<g clip-path="url(#clip0_55_83)">
<path d="M12.3142 14.8709C12.3142 14.8709 12.0541 14.6826 12.3666 14.4315L13.0943 13.7789C13.0943 13.7789 13.3028 13.559 13.5231 13.7507L20.2412 18.8492V21.2941C20.2412 21.2941 20.2379 21.6781 19.7465 21.6358L12.3142 14.8709Z" fill="white"/>
<path d="M14.0461 16.4466L12.3142 18.0247C12.3142 18.0247 12.1363 18.1573 12.3142 18.3947L13.1182 19.1275C13.1182 19.1275 13.3092 19.3333 13.5916 19.0993L15.4271 17.7038L14.0461 16.4466Z" fill="white"/>
<path d="M17.0861 16.4597L20.2618 14.029L20.2412 11.5972C20.2412 11.5972 20.1056 11.0664 19.6532 11.3429L15.4271 15.1981L17.0861 16.4597Z" fill="white"/>
<path d="M19.7464 21.6388C19.9307 21.8281 20.1544 21.766 20.1544 21.766L22.6291 20.5438C22.9459 20.3272 22.9016 20.0587 22.9016 20.0587V12.7587C22.9016 12.4377 22.574 12.327 22.574 12.327L20.4289 11.2905C19.9603 11.0001 19.6532 11.3429 19.6532 11.3429C19.6532 11.3429 20.0479 11.0578 20.2412 11.5973V21.2495C20.2412 21.3159 20.2271 21.381 20.199 21.4398C20.1426 21.5542 20.0197 21.6606 19.726 21.616L19.7464 21.6388Z" fill="white"/>
</g>
<defs>
<clipPath id="clip0_55_83">
<rect width="11" height="11" fill="white" transform="translate(12 11)"/>
</clipPath>
</defs>
</svg>
