<svg viewBox="0 0 24 24" fill="none" xmlns="http://www.w3.org/2000/svg">
    <path d="M10 4H4C2.89 4 2 4.89 2 6V18C2 19.097 2.903 20 4 20H20C21.097 20 22 19.097 22 18V8C22 7.46957 21.7893 6.96086 21.4142 6.58579C21.0391 6.21071 20.5304 6 20 6H12L10 4Z" fill="#FFCA28"/>
    <path d="M11.6464 6.35355L11.7929 6.5H12H20C20.3978 6.5 20.7794 6.65804 21.0607 6.93934C21.342 7.22064 21.5 7.60218 21.5 8V18C21.5 18.8209 20.8209 19.5 20 19.5H4C3.17914 19.5 2.5 18.8209 2.5 18V6C2.5 5.16614 3.16614 4.5 4 4.5H9.79289L11.6464 6.35355Z" stroke="black" stroke-opacity="0.25"/>
    <path d="M8.00009 18.9965L9.74137 17.9167C10.0774 18.527 10.383 19.0434 11.116 19.0434C11.8186 19.0434 12.2617 18.7618 12.2617 17.6663V10.2162H14.4001V17.6973C14.4001 19.9667 13.1018 20.9997 11.2076 20.9997C9.49702 20.9997 8.50407 20.0919 8 18.9964M15.5616 18.7617L17.3027 17.7288C17.761 18.4958 18.3568 19.0592 19.4106 19.0592C20.2967 19.0592 20.8617 18.6053 20.8617 17.9792C20.8617 17.228 20.2812 16.9618 19.3037 16.5237L18.7692 16.2888C17.2264 15.616 16.203 14.7707 16.203 12.9865C16.203 11.3431 17.425 10.0909 19.3343 10.0909C20.6938 10.0909 21.6713 10.5762 22.3739 11.8439L20.7089 12.9396C20.3422 12.2666 19.9452 12.0006 19.3342 12.0006C18.7079 12.0006 18.3108 12.4075 18.3108 12.9396C18.3108 13.5969 18.708 13.8631 19.6244 14.2701L20.1589 14.5048C21.9767 15.3031 23 16.1169 23 17.9479C23 19.9202 21.4879 21 19.4564 21C17.4707 21 16.1877 20.0296 15.5615 18.7618" fill="white"/>
    </svg>
    