<svg viewBox="0 0 24 24" fill="none" xmlns="http://www.w3.org/2000/svg">
<path d="M10 4H4C2.89 4 2 4.89 2 6V18C2 19.097 2.903 20 4 20H20C21.097 20 22 19.097 22 18V8C22 7.46957 21.7893 6.96086 21.4142 6.58579C21.0391 6.21071 20.5304 6 20 6H12L10 4Z" fill="#3C99D4"/>
<path d="M11.6464 6.35355L11.7929 6.5H12H20C20.3978 6.5 20.7794 6.65804 21.0607 6.93934C21.342 7.22064 21.5 7.60218 21.5 8V18C21.5 18.8209 20.8209 19.5 20 19.5H4C3.17914 19.5 2.5 18.8209 2.5 18V6C2.5 5.16614 3.16614 4.5 4 4.5H9.79289L11.6464 6.35355Z" stroke="black" stroke-opacity="0.25"/>
<g clip-path="url(#clip0_55_83)">
<path d="M10.3999 12.9266C10.3999 12.9266 10.0688 12.6869 10.4666 12.3673L11.3928 11.5367C11.3928 11.5367 11.6581 11.2569 11.9385 11.5009L20.4888 17.9899V21.1016C20.4888 21.1016 20.4846 21.5903 19.8592 21.5365L10.3999 12.9266Z" fill="white"/>
<path d="M12.6041 14.9321L10.3999 16.9405C10.3999 16.9405 10.1735 17.1093 10.3999 17.4114L11.4232 18.344C11.4232 18.344 11.6662 18.606 12.0256 18.3082L14.3618 16.5321L12.6041 14.9321Z" fill="white"/>
<path d="M16.4733 14.9487L20.515 11.855L20.4888 8.76004C20.4888 8.76004 20.3163 8.08454 19.7404 8.4364L14.3618 13.3431L16.4733 14.9487Z" fill="white"/>
<path d="M19.8591 21.5403C20.0937 21.7812 20.3783 21.7022 20.3783 21.7022L23.5279 20.1466C23.9312 19.871 23.8748 19.5292 23.8748 19.5292V10.2384C23.8748 9.82984 23.4578 9.68885 23.4578 9.68885L20.7277 8.36968C20.1313 8.0001 19.7404 8.4364 19.7404 8.4364C19.7404 8.4364 20.2427 8.0736 20.4888 8.76015V21.0448C20.4888 21.1294 20.4709 21.2122 20.435 21.287C20.3633 21.4327 20.2069 21.5681 19.833 21.5113L19.8591 21.5403Z" fill="white"/>
</g>
<defs>
<clipPath id="clip0_55_83">
<rect width="14" height="14" fill="white" transform="translate(10 8)"/>
</clipPath>
</defs>
</svg>
