<svg viewBox="0 0 24 24" fill="none" xmlns="http://www.w3.org/2000/svg">
    <path d="M10 4H4C2.89 4 2 4.89 2 6V18C2 19.097 2.903 20 4 20H20C21.097 20 22 19.097 22 18V8C22 7.46957 21.7893 6.96086 21.4142 6.58579C21.0391 6.21071 20.5304 6 20 6H12L10 4Z" fill="#3D3937"/>
    <g clip-path="url(#clip0_55_176)">
    <path d="M15.9545 8L9.4375 10.324L10.4315 18.941L15.9545 22L21.4775 18.941L22.4715 10.324L15.9545 8Z" fill="#DD0031"/>
    <path d="M15.9545 8V9.554V9.547V22L21.4775 18.941L22.4715 10.324L15.9545 8Z" fill="#C3002F"/>
    <path d="M15.9544 9.54684L11.8804 18.6818H13.3994L14.2184 16.6378H17.6764L18.4954 18.6818H20.0144L15.9544 9.54684ZM17.1444 15.3778H14.7644L15.9544 12.5148L17.1444 15.3778Z" fill="white"/>
    </g>
    <defs>
    <clipPath id="clip0_55_176">
    <rect width="14" height="14" fill="white" transform="translate(9 8)"/>
    </clipPath>
    </defs>
    </svg>
    