<svg width="24" height="24" viewBox="0 0 24 24" fill="none" xmlns="http://www.w3.org/2000/svg">
<path d="M10 4H4C2.89 4 2 4.89 2 6V18C2 19.097 2.903 20 4 20H20C21.097 20 22 19.097 22 18V8C22 7.46957 21.7893 6.96086 21.4142 6.58579C21.0391 6.21071 20.5304 6 20 6H12L10 4Z" fill="#3D3937"/>
<g clip-path="url(#clip0_79_2)">
<path d="M11.8434 10.0502L14.3593 10.0512L16.0038 12.781L17.6426 10.0514L20.1562 10.0507L16.0164 17.2318L11.8434 10.0502Z" fill="#35495E"/>
<path d="M9.09953 10.0695L11.8412 10.0507L16.0139 17.2321L20.1541 10.0511L22.9005 10.0539L16.0136 21.873L9.09953 10.0695Z" fill="#41B883"/>
</g>
<defs>
<clipPath id="clip0_79_2">
<rect width="14" height="14" fill="white" transform="translate(9 8)"/>
</clipPath>
</defs>
</svg>
