<svg width="24" height="24" viewBox="0 0 24 24" fill="none" xmlns="http://www.w3.org/2000/svg">
<path d="M10 4H4C2.89 4 2 4.89 2 6V18C2 19.097 2.903 20 4 20H20C21.097 20 22 19.097 22 18V8C22 7.46957 21.7893 6.96086 21.4142 6.58579C21.0391 6.21071 20.5304 6 20 6H12L10 4Z" fill="#3D3937"/>
<path fill-rule="evenodd" clip-rule="evenodd" d="M9 18.8182L12.1818 18.8182V22H14.0909V16.9091L9 16.9091V18.8182ZM12.1818 11.1818L9 11.1818V13.0909L14.0909 13.0909V8L12.1818 8V11.1818ZM17.9091 22H19.8182V18.8182L23 18.8182V16.9091L17.9091 16.9091V22ZM19.8182 11.1818V8H17.9091V13.0909L23 13.0909V11.183L19.8182 11.1818Z" fill="#D87657"/>
</svg>
