<svg width="24" height="24" viewBox="0 0 24 24" fill="none" xmlns="http://www.w3.org/2000/svg">
<path d="M19 20H4C3 20 2 19 2 18V6C2 5 3 4 4 4H10L12 6H19C20 6 21 7 21 8C21 8 5.5 8 5 8C4.5 8 4 8.5 4 9C4 9.5 4 18 4 18L5.5 11.9475C6 10 7 10 8 10C11 10 22 10 22 10C22 10 23 10 22.5 11.9475L21 18C20.77 18.87 19.92 20 19 20Z" fill="#3D3937"/>
<g clip-path="url(#clip0_79_5)">
<path d="M9.39987 12.9266C9.39987 12.9266 9.06879 12.6869 9.46659 12.3673L10.3928 11.5367C10.3928 11.5367 10.6581 11.2569 10.9385 11.5009L19.4888 17.9899V21.1016C19.4888 21.1016 19.4846 21.5903 18.8592 21.5365L9.39987 12.9266Z" fill="#2489CA"/>
<path d="M11.6041 14.9321L9.39987 16.9405C9.39987 16.9405 9.17347 17.1093 9.39987 17.4114L10.4232 18.344C10.4232 18.344 10.6662 18.606 11.0256 18.3082L13.3618 16.5321L11.6041 14.9321Z" fill="#1070B3"/>
<path d="M15.4732 14.9487L19.515 11.855L19.4888 8.76004C19.4888 8.76004 19.3162 8.08454 18.7404 8.4364L13.3618 13.3431L15.4732 14.9487Z" fill="#0877B9"/>
<path d="M18.8591 21.5403C19.0937 21.7812 19.3783 21.7022 19.3783 21.7022L22.5279 20.1466C22.9312 19.871 22.8748 19.5292 22.8748 19.5292V10.2384C22.8748 9.82984 22.4578 9.68885 22.4578 9.68885L19.7277 8.36968C19.1313 8.0001 18.7404 8.4364 18.7404 8.4364C18.7404 8.4364 19.2427 8.0736 19.4888 8.76015V21.0448C19.4888 21.1294 19.4709 21.2122 19.435 21.287C19.3633 21.4327 19.2069 21.5681 18.833 21.5113L18.8591 21.5403Z" fill="#3C99D4"/>
</g>
<defs>
<clipPath id="clip0_79_5">
<rect width="14" height="14" fill="white" transform="translate(9 8)"/>
</clipPath>
</defs>
</svg>
