<svg width="24" height="24" viewBox="0 0 24 24" fill="none" xmlns="http://www.w3.org/2000/svg">
<path d="M19 20H4C3 20 2 19 2 18V6C2 5 3 4 4 4H10L12 6H19C20 6 21 7 21 8C21 8 5.5 8 5 8C4.5 8 4 8.5 4 9C4 9.5 4 18 4 18L5.5 11.9475C6 10 7 10 8 10C11 10 22 10 22 10C22 10 23 10 22.5 11.9475L21 18C20.77 18.87 19.92 20 19 20Z" fill="#3D3937"/>
<path d="M9.00008 20.1301L10.6253 19.1223C10.9389 19.6919 11.2241 20.1739 11.9083 20.1739C12.5641 20.1739 12.9776 19.911 12.9776 18.8886V11.9352H14.9734V18.9175C14.9734 21.0356 13.7617 21.9997 11.9938 21.9997C10.3972 21.9997 9.47047 21.1525 9 20.1299M16.0574 19.911L17.6825 18.9469C18.1103 19.6627 18.6663 20.1886 19.6499 20.1886C20.4769 20.1886 21.0042 19.7649 21.0042 19.1806C21.0042 18.4794 20.4625 18.231 19.5501 17.8222L19.0512 17.6028C17.6113 16.9749 16.6562 16.186 16.6562 14.5207C16.6562 12.9869 17.7966 11.8182 19.5787 11.8182C20.8475 11.8182 21.7599 12.2711 22.4156 13.4543L20.8616 14.477C20.5194 13.8488 20.1489 13.6005 19.5786 13.6005C18.9941 13.6005 18.6234 13.9803 18.6234 14.477C18.6234 15.0904 18.9941 15.3389 19.8494 15.7187L20.3483 15.9378C22.0449 16.6829 23 17.4424 23 19.1514C23 20.9922 21.5887 22 19.6926 22C17.8394 22 16.6418 21.0943 16.0574 19.911" fill="#FFCA28"/>
</svg>
