<svg width="24" height="24" viewBox="0 0 24 24" fill="none" xmlns="http://www.w3.org/2000/svg">
<path d="M19 20H4C3 20 2 19 2 18V6C2 5 3 4 4 4H10L12 6H19C20 6 21 7 21 8C21 8 5.5 8 5 8C4.5 8 4 8.5 4 9C4 9.5 4 18 4 18L5.5 11.9475C6 10 7 10 8 10C11 10 22 10 22 10C22 10 23 10 22.5 11.9475L21 18C20.77 18.87 19.92 20 19 20Z" fill="#3D3937"/>
<g clip-path="url(#clip0_89_3)">
<path d="M15.9545 8L9.4375 10.324L10.4315 18.941L15.9545 22L21.4775 18.941L22.4715 10.324L15.9545 8Z" fill="#DD0031"/>
<path d="M15.9545 8V9.554V9.547V22L21.4775 18.941L22.4715 10.324L15.9545 8Z" fill="#C3002F"/>
<path d="M15.9544 9.54684L11.8804 18.6818H13.3994L14.2184 16.6378H17.6764L18.4954 18.6818H20.0144L15.9544 9.54684ZM17.1444 15.3778H14.7644L15.9544 12.5148L17.1444 15.3778Z" fill="white"/>
</g>
<defs>
<clipPath id="clip0_89_3">
<rect width="14" height="14" fill="white" transform="translate(9 8)"/>
</clipPath>
</defs>
</svg>
