<svg width="24" height="24" viewBox="0 0 24 24" fill="none" xmlns="http://www.w3.org/2000/svg">
<path d="M19 20H4C3 20 2 19 2 18V6C2 5 3 4 4 4H10L12 6H19C20 6 21 7 21 8C21 8 5.5 8 5 8C4.5 8 4 8.5 4 9C4 9.5 4 18 4 18L5.5 11.9475C6 10 7 10 8 10C11 10 22 10 22 10C22 10 23 10 22.5 11.9475L21 18C20.77 18.87 19.92 20 19 20Z" fill="#3D3937"/>
<path fill-rule="evenodd" clip-rule="evenodd" d="M9 18.8182L12.1818 18.8182V22H14.0909V16.9091L9 16.9091V18.8182ZM12.1818 11.1818L9 11.1818V13.0909L14.0909 13.0909V8L12.1818 8V11.1818ZM17.9091 22H19.8182V18.8182L23 18.8182V16.9091L17.9091 16.9091V22ZM19.8182 11.1818V8H17.9091V13.0909L23 13.0909V11.183L19.8182 11.1818Z" fill="#D87657"/>
</svg>
