<svg width="24" height="24" viewBox="0 0 24 24" fill="none" xmlns="http://www.w3.org/2000/svg">
<path d="M19 20H4C3 20 2 19 2 18V6C2 5 3 4 4 4H10L12 6H19C20 6 21 7 21 8C21 8 5.5 8 5 8C4.5 8 4 8.5 4 9C4 9.5 4 18 4 18L5.5 11.9475C6 10 7 10 8 10C11 10 22 10 22 10C22 10 23 10 22.5 11.9475L21 18C20.77 18.87 19.92 20 19 20Z" fill="#3D3937"/>
<g clip-path="url(#clip0_105_5)">
<path d="M9 22H21.6V20.5859H9V22ZM21.6 12.8081H20.2V10.6869H21.6V12.8081ZM21.6 9.27274H10.4V16.3434C10.4 17.9055 11.6536 19.1717 13.2 19.1717H17.4C18.9464 19.1717 20.2 17.9055 20.2 16.3434V14.2222H21.6C22.3732 14.2222 23 13.5891 23 12.8081V10.6869C23 9.90203 22.37 9.27274 21.6 9.27274Z" fill="#CA3132"/>
</g>
<defs>
<clipPath id="clip0_105_5">
<rect width="14" height="14" fill="white" transform="translate(9 8)"/>
</clipPath>
</defs>
</svg>
