<svg viewBox="0 0 24 24" fill="none" xmlns="http://www.w3.org/2000/svg">
    <path d="M10 4H4C2.89 4 2 4.89 2 6V18C2 19.097 2.903 20 4 20H20C21.097 20 22 19.097 22 18V8C22 7.46957 21.7893 6.96086 21.4142 6.58579C21.0391 6.21071 20.5304 6 20 6H12L10 4Z" fill="#3D3937"/>
    <g clip-path="url(#clip0_55_98)">
    <path d="M8.42843 12.2785C8.42843 12.2785 8.07371 12.0217 8.49992 11.6793L9.49226 10.7894C9.49226 10.7894 9.77656 10.4895 10.0769 10.7509L19.238 17.7034V21.0374C19.238 21.0374 19.2335 21.561 18.5634 21.5034L8.42843 12.2785Z" fill="#2489CA"/>
    <path d="M10.7901 14.4272L8.42844 16.5791C8.42844 16.5791 8.18586 16.76 8.42844 17.0836L9.52484 18.0829C9.52484 18.0829 9.78523 18.3636 10.1703 18.0445L12.6733 16.1416L10.7901 14.4272Z" fill="#1070B3"/>
    <path d="M14.9356 14.445L19.2661 11.1304L19.238 7.81434C19.238 7.81434 19.0531 7.09059 18.4361 7.46758L12.6733 12.7247L14.9356 14.445Z" fill="#0877B9"/>
    <path d="M18.5633 21.5075C18.8146 21.7656 19.1196 21.6809 19.1196 21.6809L22.4942 20.0143C22.9263 19.7189 22.8658 19.3527 22.8658 19.3527V9.39823C22.8658 8.96054 22.4191 8.80948 22.4191 8.80948L19.494 7.39609C18.855 7.00011 18.4361 7.46757 18.4361 7.46757C18.4361 7.46757 18.9744 7.07886 19.238 7.81445V20.9766C19.238 21.0672 19.2188 21.1559 19.1804 21.236C19.1035 21.3921 18.9359 21.5372 18.5354 21.4764L18.5633 21.5075Z" fill="#3C99D4"/>
    </g>
    <defs>
    <clipPath id="clip0_55_98">
    <rect width="15" height="15" fill="white" transform="translate(8 7)"/>
    </clipPath>
    </defs>
    </svg>
    