<svg width="24" height="24" viewBox="0 0 24 24" fill="none" xmlns="http://www.w3.org/2000/svg">
<path d="M19 20H4C3 20 2 19 2 18V6C2 5 3 4 4 4H10L12 6H19C20 6 21 7 21 8C21 8 5.5 8 5 8C4.5 8 4 8.5 4 9C4 9.5 4 18 4 18L5.5 11.9475C6 10 7 10 8 10C11 10 22 10 22 10C22 10 23 10 22.5 11.9475L21 18C20.77 18.87 19.92 20 19 20Z" fill="#3D3937"/>
<g clip-path="url(#clip0_118_95)">
<mask id="path-2-outside-1_118_95" maskUnits="userSpaceOnUse" x="8.86667" y="7.66669" width="14" height="14" fill="black">
<rect fill="white" x="8.86667" y="7.66669" width="14" height="14"/>
<path d="M22.1263 11.5322C22.1247 11.5263 22.1214 11.5212 22.1193 11.5155C22.1155 11.505 22.1122 11.4944 22.1066 11.4848C22.1029 11.4783 22.0975 11.473 22.0931 11.467C22.0873 11.4592 22.0824 11.4509 22.0755 11.444C22.0698 11.4383 22.0625 11.4341 22.0561 11.4291C22.0489 11.4234 22.0424 11.4169 22.0344 11.4123C22.0344 11.4123 22.0343 11.4123 22.0342 11.4122C22.0342 11.4122 22.0342 11.4121 22.0341 11.4121L19.6598 10.0409C19.5987 10.0056 19.5235 10.0056 19.4624 10.0409L17.0882 11.4119C17.0881 11.4119 17.0881 11.412 17.088 11.4121C17.088 11.4121 17.0879 11.4121 17.0879 11.4121C17.0798 11.4168 17.0733 11.4233 17.0661 11.429C17.0597 11.434 17.0525 11.4382 17.0468 11.4439C17.04 11.4507 17.035 11.4591 17.0292 11.4669C17.0248 11.4729 17.0194 11.4782 17.0156 11.4846C17.0101 11.4942 17.0068 11.5049 17.0029 11.5154C17.0009 11.521 16.9976 11.5262 16.996 11.5321C16.9915 11.5487 16.9891 11.5661 16.9891 11.5839V14.188L15.0106 15.3306V10.2362C15.0106 10.2185 15.0082 10.2011 15.0037 10.1843C15.0021 10.1785 14.9989 10.1733 14.9968 10.1676C14.993 10.1572 14.9896 10.1465 14.9841 10.1369C14.9804 10.1304 14.975 10.1252 14.9706 10.1192C14.9648 10.1114 14.9599 10.103 14.9529 10.0962C14.9473 10.0904 14.94 10.0863 14.9336 10.0813C14.9263 10.0756 14.9199 10.0691 14.9118 10.0644C14.9118 10.0644 14.9118 10.0644 14.9117 10.0644C14.9116 10.0644 14.9116 10.0643 14.9116 10.0642L12.5373 8.69314C12.4763 8.65787 12.401 8.65787 12.3399 8.69314L9.96571 10.0642C9.96564 10.0642 9.96564 10.0643 9.96558 10.0644C9.96551 10.0644 9.96544 10.0644 9.96544 10.0644C9.95738 10.0691 9.95086 10.0756 9.94366 10.0813C9.93727 10.0863 9.93001 10.0905 9.92435 10.0962C9.91749 10.103 9.91249 10.1114 9.9067 10.1192C9.9023 10.1252 9.89691 10.1305 9.89318 10.1369C9.88765 10.1465 9.88432 10.1572 9.88046 10.1676C9.87839 10.1733 9.87513 10.1785 9.87353 10.1843C9.86907 10.201 9.86667 10.2184 9.86667 10.2362V18.3927C9.86667 18.4637 9.9045 18.5293 9.96584 18.5647L14.7142 21.3068C14.7246 21.3128 14.7358 21.3164 14.7469 21.3203C14.752 21.3222 14.7568 21.3253 14.7622 21.3267C14.7788 21.3311 14.7959 21.3334 14.8129 21.3334C14.83 21.3334 14.847 21.3312 14.8637 21.3267C14.8683 21.3255 14.8725 21.3227 14.877 21.3211C14.8887 21.3171 14.9006 21.3132 14.9116 21.3068L19.6599 18.5647C19.7213 18.5293 19.7591 18.4637 19.7591 18.3927V15.7886L22.0342 14.4748C22.0955 14.4394 22.1333 14.3738 22.1333 14.3028V11.5839C22.1331 11.5663 22.1308 11.5488 22.1263 11.5322ZM14.8123 18.1645L12.8377 17.0435L14.9114 15.8459C14.9114 15.8459 14.9114 15.8459 14.9115 15.8459L17.1869 14.5318L19.1633 15.6732L17.7132 16.5035L14.8123 18.1645ZM19.3633 13.0698V15.3307L18.5324 14.8508L17.3848 14.1881V11.9273L18.2156 12.4071L19.3633 13.0698ZM19.5611 10.442L21.5388 11.584L19.5611 12.7261L17.5834 11.584L19.5611 10.442ZM13.4673 16.2219L12.6364 16.7017V11.722L13.784 11.0593L14.6149 10.5794V15.5591L13.4673 16.2219ZM12.4385 9.09412L14.4162 10.2362L12.4385 11.3783L10.4608 10.2362L12.4385 9.09412ZM10.2622 10.5795L11.093 11.0593L12.2407 11.7221V17.045C12.2407 17.0451 12.2408 17.0452 12.2408 17.0453C12.2408 17.0455 12.2407 17.0456 12.2407 17.0457C12.2407 17.0533 12.2428 17.0605 12.2437 17.068C12.2448 17.0777 12.2451 17.0876 12.2476 17.097C12.2477 17.0971 12.2477 17.0973 12.2478 17.0974C12.2499 17.1053 12.254 17.1123 12.2571 17.1198C12.2605 17.128 12.2629 17.1368 12.2675 17.1445C12.2675 17.1447 12.2676 17.1449 12.2677 17.1451C12.2718 17.1522 12.2777 17.1579 12.2825 17.1644C12.2879 17.1714 12.2924 17.1791 12.2988 17.1854C12.299 17.1856 12.2991 17.1858 12.2993 17.186C12.3049 17.1916 12.312 17.1955 12.3182 17.2004C12.3253 17.2059 12.3317 17.2123 12.3395 17.2169C12.3398 17.217 12.3401 17.2171 12.3404 17.2172C12.3407 17.2174 12.3409 17.2176 12.3411 17.2178L14.6149 18.5085V20.7917L10.2622 18.2781V10.5795H10.2622ZM19.3633 18.2781L15.0106 20.7917V18.5081L18.2342 16.6623L19.3633 16.0158V18.2781ZM21.7374 14.1881L19.7589 15.3307V13.0698L20.9066 12.4071L21.7374 11.9273V14.1881Z"/>
</mask>
<path d="M22.1263 11.5322C22.1247 11.5263 22.1214 11.5212 22.1193 11.5155C22.1155 11.505 22.1122 11.4944 22.1066 11.4848C22.1029 11.4783 22.0975 11.473 22.0931 11.467C22.0873 11.4592 22.0824 11.4509 22.0755 11.444C22.0698 11.4383 22.0625 11.4341 22.0561 11.4291C22.0489 11.4234 22.0424 11.4169 22.0344 11.4123C22.0344 11.4123 22.0343 11.4123 22.0342 11.4122C22.0342 11.4122 22.0342 11.4121 22.0341 11.4121L19.6598 10.0409C19.5987 10.0056 19.5235 10.0056 19.4624 10.0409L17.0882 11.4119C17.0881 11.4119 17.0881 11.412 17.088 11.4121C17.088 11.4121 17.0879 11.4121 17.0879 11.4121C17.0798 11.4168 17.0733 11.4233 17.0661 11.429C17.0597 11.434 17.0525 11.4382 17.0468 11.4439C17.04 11.4507 17.035 11.4591 17.0292 11.4669C17.0248 11.4729 17.0194 11.4782 17.0156 11.4846C17.0101 11.4942 17.0068 11.5049 17.0029 11.5154C17.0009 11.521 16.9976 11.5262 16.996 11.5321C16.9915 11.5487 16.9891 11.5661 16.9891 11.5839V14.188L15.0106 15.3306V10.2362C15.0106 10.2185 15.0082 10.2011 15.0037 10.1843C15.0021 10.1785 14.9989 10.1733 14.9968 10.1676C14.993 10.1572 14.9896 10.1465 14.9841 10.1369C14.9804 10.1304 14.975 10.1252 14.9706 10.1192C14.9648 10.1114 14.9599 10.103 14.9529 10.0962C14.9473 10.0904 14.94 10.0863 14.9336 10.0813C14.9263 10.0756 14.9199 10.0691 14.9118 10.0644C14.9118 10.0644 14.9118 10.0644 14.9117 10.0644C14.9116 10.0644 14.9116 10.0643 14.9116 10.0642L12.5373 8.69314C12.4763 8.65787 12.401 8.65787 12.3399 8.69314L9.96571 10.0642C9.96564 10.0642 9.96564 10.0643 9.96558 10.0644C9.96551 10.0644 9.96544 10.0644 9.96544 10.0644C9.95738 10.0691 9.95086 10.0756 9.94366 10.0813C9.93727 10.0863 9.93001 10.0905 9.92435 10.0962C9.91749 10.103 9.91249 10.1114 9.9067 10.1192C9.9023 10.1252 9.89691 10.1305 9.89318 10.1369C9.88765 10.1465 9.88432 10.1572 9.88046 10.1676C9.87839 10.1733 9.87513 10.1785 9.87353 10.1843C9.86907 10.201 9.86667 10.2184 9.86667 10.2362V18.3927C9.86667 18.4637 9.9045 18.5293 9.96584 18.5647L14.7142 21.3068C14.7246 21.3128 14.7358 21.3164 14.7469 21.3203C14.752 21.3222 14.7568 21.3253 14.7622 21.3267C14.7788 21.3311 14.7959 21.3334 14.8129 21.3334C14.83 21.3334 14.847 21.3312 14.8637 21.3267C14.8683 21.3255 14.8725 21.3227 14.877 21.3211C14.8887 21.3171 14.9006 21.3132 14.9116 21.3068L19.6599 18.5647C19.7213 18.5293 19.7591 18.4637 19.7591 18.3927V15.7886L22.0342 14.4748C22.0955 14.4394 22.1333 14.3738 22.1333 14.3028V11.5839C22.1331 11.5663 22.1308 11.5488 22.1263 11.5322ZM14.8123 18.1645L12.8377 17.0435L14.9114 15.8459C14.9114 15.8459 14.9114 15.8459 14.9115 15.8459L17.1869 14.5318L19.1633 15.6732L17.7132 16.5035L14.8123 18.1645ZM19.3633 13.0698V15.3307L18.5324 14.8508L17.3848 14.1881V11.9273L18.2156 12.4071L19.3633 13.0698ZM19.5611 10.442L21.5388 11.584L19.5611 12.7261L17.5834 11.584L19.5611 10.442ZM13.4673 16.2219L12.6364 16.7017V11.722L13.784 11.0593L14.6149 10.5794V15.5591L13.4673 16.2219ZM12.4385 9.09412L14.4162 10.2362L12.4385 11.3783L10.4608 10.2362L12.4385 9.09412ZM10.2622 10.5795L11.093 11.0593L12.2407 11.7221V17.045C12.2407 17.0451 12.2408 17.0452 12.2408 17.0453C12.2408 17.0455 12.2407 17.0456 12.2407 17.0457C12.2407 17.0533 12.2428 17.0605 12.2437 17.068C12.2448 17.0777 12.2451 17.0876 12.2476 17.097C12.2477 17.0971 12.2477 17.0973 12.2478 17.0974C12.2499 17.1053 12.254 17.1123 12.2571 17.1198C12.2605 17.128 12.2629 17.1368 12.2675 17.1445C12.2675 17.1447 12.2676 17.1449 12.2677 17.1451C12.2718 17.1522 12.2777 17.1579 12.2825 17.1644C12.2879 17.1714 12.2924 17.1791 12.2988 17.1854C12.299 17.1856 12.2991 17.1858 12.2993 17.186C12.3049 17.1916 12.312 17.1955 12.3182 17.2004C12.3253 17.2059 12.3317 17.2123 12.3395 17.2169C12.3398 17.217 12.3401 17.2171 12.3404 17.2172C12.3407 17.2174 12.3409 17.2176 12.3411 17.2178L14.6149 18.5085V20.7917L10.2622 18.2781V10.5795H10.2622ZM19.3633 18.2781L15.0106 20.7917V18.5081L18.2342 16.6623L19.3633 16.0158V18.2781ZM21.7374 14.1881L19.7589 15.3307V13.0698L20.9066 12.4071L21.7374 11.9273V14.1881Z" fill="#FF2D20"/>
<path d="M22.1263 11.5322C22.1247 11.5263 22.1214 11.5212 22.1193 11.5155C22.1155 11.505 22.1122 11.4944 22.1066 11.4848C22.1029 11.4783 22.0975 11.473 22.0931 11.467C22.0873 11.4592 22.0824 11.4509 22.0755 11.444C22.0698 11.4383 22.0625 11.4341 22.0561 11.4291C22.0489 11.4234 22.0424 11.4169 22.0344 11.4123C22.0344 11.4123 22.0343 11.4123 22.0342 11.4122C22.0342 11.4122 22.0342 11.4121 22.0341 11.4121L19.6598 10.0409C19.5987 10.0056 19.5235 10.0056 19.4624 10.0409L17.0882 11.4119C17.0881 11.4119 17.0881 11.412 17.088 11.4121C17.088 11.4121 17.0879 11.4121 17.0879 11.4121C17.0798 11.4168 17.0733 11.4233 17.0661 11.429C17.0597 11.434 17.0525 11.4382 17.0468 11.4439C17.04 11.4507 17.035 11.4591 17.0292 11.4669C17.0248 11.4729 17.0194 11.4782 17.0156 11.4846C17.0101 11.4942 17.0068 11.5049 17.0029 11.5154C17.0009 11.521 16.9976 11.5262 16.996 11.5321C16.9915 11.5487 16.9891 11.5661 16.9891 11.5839V14.188L15.0106 15.3306V10.2362C15.0106 10.2185 15.0082 10.2011 15.0037 10.1843C15.0021 10.1785 14.9989 10.1733 14.9968 10.1676C14.993 10.1572 14.9896 10.1465 14.9841 10.1369C14.9804 10.1304 14.975 10.1252 14.9706 10.1192C14.9648 10.1114 14.9599 10.103 14.9529 10.0962C14.9473 10.0904 14.94 10.0863 14.9336 10.0813C14.9263 10.0756 14.9199 10.0691 14.9118 10.0644C14.9118 10.0644 14.9118 10.0644 14.9117 10.0644C14.9116 10.0644 14.9116 10.0643 14.9116 10.0642L12.5373 8.69314C12.4763 8.65787 12.401 8.65787 12.3399 8.69314L9.96571 10.0642C9.96564 10.0642 9.96564 10.0643 9.96558 10.0644C9.96551 10.0644 9.96544 10.0644 9.96544 10.0644C9.95738 10.0691 9.95086 10.0756 9.94366 10.0813C9.93727 10.0863 9.93001 10.0905 9.92435 10.0962C9.91749 10.103 9.91249 10.1114 9.9067 10.1192C9.9023 10.1252 9.89691 10.1305 9.89318 10.1369C9.88765 10.1465 9.88432 10.1572 9.88046 10.1676C9.87839 10.1733 9.87513 10.1785 9.87353 10.1843C9.86907 10.201 9.86667 10.2184 9.86667 10.2362V18.3927C9.86667 18.4637 9.9045 18.5293 9.96584 18.5647L14.7142 21.3068C14.7246 21.3128 14.7358 21.3164 14.7469 21.3203C14.752 21.3222 14.7568 21.3253 14.7622 21.3267C14.7788 21.3311 14.7959 21.3334 14.8129 21.3334C14.83 21.3334 14.847 21.3312 14.8637 21.3267C14.8683 21.3255 14.8725 21.3227 14.877 21.3211C14.8887 21.3171 14.9006 21.3132 14.9116 21.3068L19.6599 18.5647C19.7213 18.5293 19.7591 18.4637 19.7591 18.3927V15.7886L22.0342 14.4748C22.0955 14.4394 22.1333 14.3738 22.1333 14.3028V11.5839C22.1331 11.5663 22.1308 11.5488 22.1263 11.5322ZM14.8123 18.1645L12.8377 17.0435L14.9114 15.8459C14.9114 15.8459 14.9114 15.8459 14.9115 15.8459L17.1869 14.5318L19.1633 15.6732L17.7132 16.5035L14.8123 18.1645ZM19.3633 13.0698V15.3307L18.5324 14.8508L17.3848 14.1881V11.9273L18.2156 12.4071L19.3633 13.0698ZM19.5611 10.442L21.5388 11.584L19.5611 12.7261L17.5834 11.584L19.5611 10.442ZM13.4673 16.2219L12.6364 16.7017V11.722L13.784 11.0593L14.6149 10.5794V15.5591L13.4673 16.2219ZM12.4385 9.09412L14.4162 10.2362L12.4385 11.3783L10.4608 10.2362L12.4385 9.09412ZM10.2622 10.5795L11.093 11.0593L12.2407 11.7221V17.045C12.2407 17.0451 12.2408 17.0452 12.2408 17.0453C12.2408 17.0455 12.2407 17.0456 12.2407 17.0457C12.2407 17.0533 12.2428 17.0605 12.2437 17.068C12.2448 17.0777 12.2451 17.0876 12.2476 17.097C12.2477 17.0971 12.2477 17.0973 12.2478 17.0974C12.2499 17.1053 12.254 17.1123 12.2571 17.1198C12.2605 17.128 12.2629 17.1368 12.2675 17.1445C12.2675 17.1447 12.2676 17.1449 12.2677 17.1451C12.2718 17.1522 12.2777 17.1579 12.2825 17.1644C12.2879 17.1714 12.2924 17.1791 12.2988 17.1854C12.299 17.1856 12.2991 17.1858 12.2993 17.186C12.3049 17.1916 12.312 17.1955 12.3182 17.2004C12.3253 17.2059 12.3317 17.2123 12.3395 17.2169C12.3398 17.217 12.3401 17.2171 12.3404 17.2172C12.3407 17.2174 12.3409 17.2176 12.3411 17.2178L14.6149 18.5085V20.7917L10.2622 18.2781V10.5795H10.2622ZM19.3633 18.2781L15.0106 20.7917V18.5081L18.2342 16.6623L19.3633 16.0158V18.2781ZM21.7374 14.1881L19.7589 15.3307V13.0698L20.9066 12.4071L21.7374 11.9273V14.1881Z" stroke="#FF2D20" stroke-width="0.6" stroke-linejoin="round" mask="url(#path-2-outside-1_118_95)"/>
</g>
<defs>
<clipPath id="clip0_118_95">
<rect width="14" height="14" fill="white" transform="translate(9 8)"/>
</clipPath>
</defs>
</svg>
