<svg width="24" height="24" viewBox="0 0 24 24" fill="none" xmlns="http://www.w3.org/2000/svg">
<path d="M19 20H4C3 20 2 19 2 18V6C2 5 3 4 4 4H10L12 6H19C20 6 21 7 21 8C21 8 5.5 8 5 8C4.5 8 4 8.5 4 9C4 9.5 4 18 4 18L5.5 11.9475C6 10 7 10 8 10C11 10 22 10 22 10C22 10 23 10 22.5 11.9475L21 18C20.77 18.87 19.92 20 19 20Z" fill="#3D3937"/>
<g clip-path="url(#clip0_89_7)">
<path d="M22.7193 14.386L16.614 8.28125C16.5304 8.19756 16.4311 8.13117 16.3218 8.08588C16.2125 8.04059 16.0954 8.01727 15.977 8.01727C15.8587 8.01727 15.7416 8.04059 15.6323 8.08588C15.523 8.13117 15.4237 8.19756 15.34 8.28125L14.0727 9.54916L15.6806 11.157C15.8696 11.0928 16.0729 11.0828 16.2673 11.1281C16.4617 11.1734 16.6396 11.2722 16.7808 11.4133C16.9228 11.5554 17.0219 11.7347 17.0669 11.9305C17.1118 12.1263 17.1007 12.3308 17.0348 12.5207L18.585 14.0704C18.7749 14.0045 18.9795 13.9933 19.1753 14.0383C19.3712 14.0834 19.5505 14.1826 19.6925 14.3248C19.792 14.4243 19.871 14.5424 19.9248 14.6724C19.9787 14.8024 20.0064 14.9417 20.0064 15.0824C20.0064 15.2231 19.9787 15.3625 19.9248 15.4924C19.871 15.6224 19.792 15.7405 19.6925 15.84C19.4914 16.041 19.2187 16.1539 18.9343 16.1539C18.65 16.1539 18.3773 16.041 18.1761 15.84C18.0267 15.6903 17.9249 15.4998 17.8835 15.2924C17.8421 15.085 17.863 14.8699 17.9436 14.6744L16.4979 13.2292V17.0331C16.6505 17.1084 16.783 17.2191 16.8843 17.3558C16.9856 17.4926 17.0529 17.6515 17.0805 17.8194C17.1082 17.9874 17.0954 18.1595 17.0434 18.3215C16.9913 18.4835 16.9013 18.6308 16.781 18.7511C16.6815 18.8506 16.5634 18.9295 16.4334 18.9834C16.3034 19.0372 16.1641 19.065 16.0234 19.065C15.8827 19.065 15.7434 19.0372 15.6134 18.9834C15.4834 18.9295 15.3653 18.8506 15.2658 18.7511C15.1663 18.6516 15.0873 18.5335 15.0334 18.4035C14.9796 18.2735 14.9519 18.1342 14.9519 17.9934C14.9519 17.8527 14.9796 17.7134 15.0334 17.5834C15.0873 17.4534 15.1663 17.3353 15.2658 17.2358C15.366 17.1353 15.4852 17.0557 15.6164 17.0016V13.1627C15.4857 13.1089 15.367 13.0298 15.267 12.9299C15.167 12.8301 15.0877 12.7115 15.0337 12.5809C14.9797 12.4503 14.952 12.3104 14.9523 12.1691C14.9525 12.0278 14.9806 11.8879 15.0351 11.7575L13.4497 10.1719L9.26313 14.3574C9.09442 14.5264 8.99967 14.7555 8.99967 14.9943C8.99967 15.2331 9.09442 15.4622 9.26313 15.6312L15.3687 21.7368C15.5377 21.9054 15.7667 22.0002 16.0055 22.0002C16.2443 22.0002 16.4733 21.9054 16.6423 21.7368L22.7193 15.6599C22.888 15.4908 22.9827 15.2618 22.9827 15.0229C22.9827 14.7841 22.888 14.555 22.7193 14.386Z" fill="#F03C2E"/>
</g>
<defs>
<clipPath id="clip0_89_7">
<rect width="14" height="14" fill="white" transform="translate(9 8)"/>
</clipPath>
</defs>
</svg>
