<svg width="24" height="24" viewBox="0 0 24 24" fill="none" xmlns="http://www.w3.org/2000/svg">
<path d="M19 20H4C3 20 2 19 2 18V6C2 5 3 4 4 4H10L12 6H19C20 6 21 7 21 8C21 8 5.5 8 5 8C4.5 8 4 8.5 4 9C4 9.5 4 18 4 18L5.5 11.9475C6 10 7 10 8 10C11 10 22 10 22 10C22 10 23 10 22.5 11.9475L21 18C20.77 18.87 19.92 20 19 20Z" fill="#3D3937"/>
<path fill-rule="evenodd" clip-rule="evenodd" d="M17.5812 16.4219C17.5812 16.3961 17.5979 16.4203 17.5875 16.4219C17.5874 16.422 17.5812 16.4501 17.5812 16.4219ZM20.9104 14.9466C20.9104 14.4498 21.6036 14.5098 21.6036 14.9062C21.6036 15.403 20.9104 15.3429 20.9104 14.9466ZM17.4027 16.6139C17.4813 16.6139 17.5246 16.5736 17.5512 16.5143C17.5552 16.5054 17.5573 16.4984 17.5633 16.4855L17.5812 16.4523C17.5812 16.5195 17.5517 16.6326 17.5317 16.6875C17.4204 16.9936 17.1446 17.008 16.8251 17.008C16.425 17.008 15.8984 16.5762 15.6462 16.3335L15.3104 15.9796C14.8776 15.5032 14.4096 14.6897 14.2061 14.0915C14.0354 13.5901 13.9055 13.1039 13.9055 12.5618C13.9055 12.312 13.9296 12.0611 13.9655 11.8515C13.9867 11.7278 14.1136 11.3008 14.1155 11.2178H12.4562C12.17 11.2178 11.8828 11.2622 11.6559 11.3168C11.478 11.3596 11.3094 11.4171 11.1449 11.4819C10.7364 11.643 10.384 11.9031 10.0748 12.2005C9.95948 12.3115 9.86224 12.431 9.76312 12.5574C9.56228 12.8137 9.39953 13.1095 9.28575 13.4118C8.89243 14.4566 8.90531 15.5253 9.3234 16.5563L9.61039 17.22C9.66069 17.3302 9.70575 17.4403 9.75411 17.5566C9.84726 17.7806 9.93979 18.0193 10.007 18.2531C10.1189 18.6426 10.2138 19.0093 10.2736 19.4214C10.4036 20.3175 10.4083 20.9562 10.4083 21.8686C10.4083 21.9301 10.3978 21.9423 10.3978 22H13.2123V18.635H14.5986V22H17.4132C17.4121 21.9543 17.4027 21.9598 17.4027 21.909C17.4027 21.6657 17.3864 21.0128 17.4117 20.796C17.4176 20.7449 17.4133 20.6692 17.4132 20.6156L17.4508 19.9241C17.4561 19.8901 17.4541 19.8719 17.455 19.8373C17.4562 19.7887 17.4632 19.7912 17.4655 19.7463C17.4863 19.3426 17.5534 18.8217 17.6346 18.4336C17.6772 18.2297 17.7187 18.0373 17.7762 17.8424C17.9709 17.1829 18.3469 16.3442 19.2018 16.7018C19.2765 16.7331 19.3564 16.7871 19.4164 16.8388C19.5789 16.9788 19.6784 17.1003 19.7928 17.2851C19.8536 17.3835 19.9009 17.4855 19.9457 17.5927C20.1224 18.015 20.2068 18.4968 20.2068 18.9684C20.2068 19.3094 20.2389 19.4835 19.9733 19.7341C19.9122 19.7917 19.8417 19.8365 19.7701 19.8821C19.7039 19.9242 19.5991 19.9713 19.5031 19.9789V20.656C19.8939 20.656 20.2988 20.6218 20.6046 20.5234C20.7478 20.4773 20.8704 20.4227 21.0016 20.3597C21.2144 20.2573 21.5078 20.076 21.6745 19.9158C21.9159 19.6836 21.9822 19.5248 22.1412 19.2735C22.2703 19.0695 22.4679 18.5449 22.5406 18.2936L22.7127 17.6407C22.7488 17.4887 22.7779 17.3433 22.8053 17.1842C22.8327 17.0254 22.8608 16.8657 22.8817 16.712C22.9043 16.5466 22.9175 16.3927 22.9419 16.2242C22.9715 16.0193 23 15.6736 23 15.4616L22.9883 14.6045L22.9209 14.0429C22.9016 13.9163 22.8815 13.7976 22.8533 13.6834C22.7976 13.4574 22.7443 13.2431 22.6612 13.0397C22.5187 12.6905 22.2997 12.2524 22.021 11.9883C22.001 11.9693 21.9866 11.9574 21.9696 11.9368C21.8608 11.8047 21.6976 11.6927 21.5532 11.5997C21.1923 11.3673 20.7162 11.2178 20.1438 11.2178C19.7531 11.2178 19.3715 11.2644 19.0474 11.335C18.8912 11.3691 18.7196 11.4195 18.5834 11.4747C18.4411 11.5324 18.3051 11.6019 18.1799 11.6826C18.1294 11.5909 18.0951 11.4894 18.0468 11.3963C17.9879 11.2826 17.9216 11.176 17.836 11.0838C17.535 10.7595 17.2024 10.6315 16.7458 10.5665C16.4684 10.527 16.2103 10.5467 15.9579 10.5956C14.9865 10.7839 14.7081 11.402 14.618 12.2267L14.6002 12.631C14.6309 12.8934 14.637 13.098 14.7035 13.3602C14.8126 13.7899 14.9657 14.188 15.1692 14.5795C15.264 14.7618 15.3668 14.9453 15.485 15.1144C15.7463 15.4884 15.9277 15.7234 16.2553 16.0405L16.4227 16.1825C16.6853 16.3948 17.0212 16.6139 17.4027 16.6139Z" fill="#777BB4"/>
</svg>
