<svg width="24" height="24" viewBox="0 0 24 24" fill="none" xmlns="http://www.w3.org/2000/svg">
<path d="M10 4H4C2.89 4 2 4.89 2 6V18C2 19.097 2.903 20 4 20H20C21.097 20 22 19.097 22 18V8C22 7.46957 21.7893 6.96086 21.4142 6.58579C21.0391 6.21071 20.5304 6 20 6H12L10 4Z" fill="#3D3937"/>
<g clip-path="url(#clip0_105_4)">
<path d="M9 22H21.6V20.5859H9V22ZM21.6 12.8081H20.2V10.6869H21.6V12.8081ZM21.6 9.27274H10.4V16.3434C10.4 17.9055 11.6536 19.1717 13.2 19.1717H17.4C18.9464 19.1717 20.2 17.9055 20.2 16.3434V14.2222H21.6C22.3732 14.2222 23 13.5891 23 12.8081V10.6869C23 9.90203 22.37 9.27274 21.6 9.27274Z" fill="#CA3132"/>
</g>
<defs>
<clipPath id="clip0_105_4">
<rect width="14" height="14" fill="white" transform="translate(9 8)"/>
</clipPath>
</defs>
</svg>
