<svg viewBox="0 0 24 24" fill="none" xmlns="http://www.w3.org/2000/svg">
    <path d="M10 4H4C2.89 4 2 4.89 2 6V18C2 19.097 2.903 20 4 20H20C21.097 20 22 19.097 22 18V8C22 7.46957 21.7893 6.96086 21.4142 6.58579C21.0391 6.21071 20.5304 6 20 6H12L10 4Z" fill="#3D3937"/>
    <path d="M12.0001 20.5308L13.277 19.7389C13.5234 20.1865 13.7475 20.5652 14.2851 20.5652C14.8003 20.5652 15.1253 20.3587 15.1253 19.5553V14.0919H16.6934V19.578C16.6934 21.2423 15.7413 21.9998 14.3523 21.9998C13.0978 21.9998 12.3697 21.3341 12 20.5307M17.5451 20.3586L18.8219 19.6011C19.1581 20.1636 19.595 20.5767 20.3678 20.5767C21.0176 20.5767 21.4319 20.2439 21.4319 19.7847C21.4319 19.2338 21.0062 19.0387 20.2894 18.7174L19.8974 18.5451C18.766 18.0517 18.0156 17.4319 18.0156 16.1234C18.0156 14.9182 18.9116 14 20.3118 14C21.3088 14 22.0256 14.3559 22.5408 15.2855L21.3198 16.089C21.051 15.5955 20.7598 15.4004 20.3118 15.4004C19.8525 15.4004 19.5613 15.6988 19.5613 16.089C19.5613 16.5711 19.8525 16.7663 20.5245 17.0647L20.9165 17.2368C22.2495 17.8223 23 18.419 23 19.7618C23 21.2081 21.8911 22 20.4013 22C18.9452 22 18.0043 21.2884 17.5451 20.3587" fill="#FFCA28"/>
    </svg>
    