<svg width="24" height="24" viewBox="0 0 24 24" fill="none" xmlns="http://www.w3.org/2000/svg">
    <path d="M10 4H4C2.89 4 2 4.89 2 6V18C2 19.097 2.903 20 4 20H20C21.097 20 22 19.097 22 18V8C22 7.46957 21.7893 6.96086 21.4142 6.58579C21.0391 6.21071 20.5304 6 20 6H12L10 4Z" fill="#3D3937"/>
    <g clip-path="url(#clip0_119_104)">
    <path d="M16.9324 15.4321H18.3842V16.7456H16.9324V15.4321ZM15.204 15.4321H16.6559V16.7456H15.204V15.4321ZM13.5102 15.4321H14.9621V16.7456H13.5102V15.4321ZM11.8164 15.4321H13.2337V16.7456H11.8164V15.4321ZM10.088 15.4321H11.5399V16.7456H10.088V15.4321ZM11.8164 13.842H13.2337V15.1555H11.8164V13.842ZM13.5102 13.842H14.9621V15.1555H13.5102V13.842ZM15.204 13.842H16.6559V15.1555H15.204V13.842ZM15.204 12.2518H16.6559V13.5654H15.204V12.2518Z" fill="#2497ED"/>
    <path d="M23.0163 16.158C23.0163 16.158 22.3941 15.5704 21.1151 15.7778C20.9768 14.7753 19.9052 14.1876 19.9052 14.1876C19.9052 14.1876 18.9028 15.3975 19.6286 16.7456C19.4212 16.8493 19.0756 16.9876 18.557 16.9876H9.05085C8.87803 17.6444 8.87803 22 13.6484 22C17.0706 22 19.6286 20.4099 20.8385 17.5062C22.636 17.6444 23.0163 16.158 23.0163 16.158Z" fill="#2497ED"/>
    </g>
    <defs>
    <clipPath id="clip0_119_104">
    <rect width="14" height="14" fill="white" transform="translate(9 8)"/>
    </clipPath>
    </defs>
    </svg>
    