<svg width="24" height="24" viewBox="0 0 24 24" fill="none" xmlns="http://www.w3.org/2000/svg">
<path d="M19 20H4C3 20 2 19 2 18V6C2 5 3 4 4 4H10L12 6H19C20 6 21 7 21 8C21 8 5.5 8 5 8C4.5 8 4 8.5 4 9C4 9.5 4 18 4 18L5.5 11.9475C6 10 7 10 8 10C11 10 22 10 22 10C22 10 23 10 22.5 11.9475L21 18C20.77 18.87 19.92 20 19 20Z" fill="#3D3937"/>
<g clip-path="url(#clip0_89_11)">
<path d="M16.7002 8.00001C16.5814 7.9998 16.4647 8.0302 16.3618 8.08811L10.738 11.2468C10.5278 11.3652 10.4 11.5933 10.4 11.8301V18.1693C10.3997 18.2853 10.4308 18.3993 10.4902 18.4998C10.5495 18.6003 10.635 18.6836 10.738 18.7414L16.3618 21.9111C16.4645 21.9693 16.5812 22 16.6999 22C16.8187 22 16.9353 21.9693 17.038 21.9111L22.6618 18.7414C22.7648 18.6835 22.8502 18.6001 22.9096 18.4997C22.969 18.3992 23.0002 18.2852 23 18.1692V11.8299C23 11.5928 22.8722 11.3649 22.6617 11.2467L17.0379 8.08796C16.9351 8.02977 16.819 7.99951 16.7002 8.00001Z" fill="#83CD29"/>
</g>
<defs>
<clipPath id="clip0_89_11">
<rect width="14" height="14" fill="white" transform="translate(9 8)"/>
</clipPath>
</defs>
</svg>
